<?xml version="1.0" encoding="iso-8859-1"?>
<!-- Uploaded to: SVG Repo, www.svgrepo.com, Generator: SVG Repo Mixer Tools -->
<svg height="800px" width="800px" version="1.1" id="Layer_1" xmlns="http://www.w3.org/2000/svg" xmlns:xlink="http://www.w3.org/1999/xlink" 
	 viewBox="0 0 512 512" xml:space="preserve">
<g>
	<circle style="fill:#ECE5DD;" cx="256" cy="256" r="256"/>
	<circle style="fill:#ECE5DD;" cx="256" cy="256" r="256"/>
</g>
<path style="fill:#D9CBBD;" d="M512,256c0-71.351-29.201-135.873-76.29-182.298L289.391,189.217l-44.522,11.13L100.174,100.174
	L63.026,87.791c-4.944,5.667-9.635,11.559-14.07,17.648l320.2,380.238C453.781,443.905,512,356.758,512,256z"/>
<path style="fill:#AC2201;" d="M512,256c0-56.693-18.442-109.07-49.635-151.492L444.661,118.4v310.626
	C486.471,383.461,512,322.715,512,256z"/>
<path style="fill:#CD2900;" d="M416.127,56.273L262.325,172.605c-3.742,2.83-8.909,2.83-12.651,0L95.873,56.273
	c-17.717,14.222-33.499,30.752-46.895,49.135l200.549,157.351c3.8,2.982,9.145,2.982,12.945,0l200.549-157.351
	C449.626,87.024,433.844,70.496,416.127,56.273z"/>
<path style="fill:#AC2201;" d="M67.339,429.026V118.4l-17.704-13.892C18.442,146.93,0,199.307,0,256
	C0,322.715,25.529,383.461,67.339,429.026z"/>
</svg>